# xmcd
#
# Track frame offsets:
#	150
#	14063
#	23933
#	35390
#	48537
#	60445
#	72163
#	86951
#	99532
#	111258
#	130698
#	143213
#	155618
#	171749
#	183066
#
# Disc length: 2607 seconds
#
# Revision: 0
# Processed by: cddbd v1.5.2PL0 Copyright (c) Steve Scherf et al.
# Submitted via: FairStars CD Ripper 1.52
#
DISCID=d40a2d0f
DTITLE=Don Costa - Cream Of Country
DYEAR=2012
DGENRE=Country
TTITLE0=Silver Wings
TTITLE1=I Can't Stop Loving You
TTITLE2=Chattahoochie
TTITLE3=Make The World Go Away
TTITLE4=Heaven Is My Woman's Love
TTITLE5=Act Naturally
TTITLE6=He Stopped Loving Her Today
TTITLE7=Moody Blue
TTITLE8=Working Man Blues
TTITLE9=Coward Of The County
TTITLE10=Two More Bottles Of Wine
TTITLE11=Always On My Mind
TTITLE12=Adalida
TTITLE13=Running Bear
TTITLE14=Bonus Track - Jackson
EXTD=
EXTT0=
EXTT1=
EXTT2=
EXTT3=
EXTT4=
EXTT5=
EXTT6=
EXTT7=
EXTT8=
EXTT9=
EXTT10=
EXTT11=
EXTT12=
EXTT13=
EXTT14=
PLAYORDER=
